<?xml version="1.0" standalone="no"?>
<!DOCTYPE svg PUBLIC "-//W3C//DTD SVG 20010904//EN"
 "http://www.w3.org/TR/2001/REC-SVG-20010904/DTD/svg10.dtd">
<svg version="1.0" xmlns="http://www.w3.org/2000/svg"
 width="2400.000000pt" height="2293.000000pt" viewBox="0 0 2400.000000 2293.000000"
 preserveAspectRatio="xMidYMid meet">

<g transform="translate(0.000000,2293.000000) scale(0.100000,-0.100000)"
fill="#000000" stroke="none">
<path d="M2660 22923 c-526 -31 -1058 -191 -1442 -434 -252 -160 -559 -440
-722 -659 -314 -422 -473 -897 -493 -1470 -16 -477 74 -919 268 -1310 260
-525 724 -972 1252 -1207 378 -168 754 -247 1237 -260 965 -25 1731 248 2305
822 414 415 648 908 711 1503 20 179 14 535 -11 716 -83 607 -319 1097 -723
1503 -412 414 -945 674 -1567 763 -238 35 -564 48 -815 33z"/>
<path d="M17670 15829 c-969 -67 -1807 -336 -2545 -817 -599 -391 -1143 -935
-1586 -1589 l-99 -147 0 1097 0 1097 -2575 0 -2576 0 6 -32 c24 -147 45 -2259
45 -4623 0 -2316 -30 -9370 -45 -10432 l-5 -383 2575 0 2575 0 0 4458 c0 2974
4 4504 10 4597 30 398 93 663 229 964 155 344 372 660 645 939 366 376 705
584 1146 706 517 144 1191 133 1690 -26 942 -301 1495 -1139 1649 -2498 46
-405 45 -246 48 -4802 l4 -4338 2570 0 2570 0 -4 4733 c-3 3545 -6 4772 -15
4892 -7 88 -21 261 -32 385 -120 1333 -454 2432 -1012 3322 -568 907 -1431
1643 -2408 2053 -607 255 -1255 399 -2000 445 -188 11 -689 11 -860 -1z
m-4234 -2596 c-10 -10 -19 5 -10 18 6 11 8 11 12 0 2 -7 1 -15 -2 -18z"/>
<path d="M300 7735 l0 -7735 2570 0 2570 0 0 7735 0 7735 -2570 0 -2570 0 0
-7735z"/>
</g>
</svg>
